<svg width="40" height="40" viewBox="0 0 40 40" fill="none" xmlns="http://www.w3.org/2000/svg">
<path fill-rule="evenodd" clip-rule="evenodd" d="M20 3.33334C10.8 3.33334 3.33333 10.8 3.33333 20C3.33333 29.2 10.8 36.6667 20 36.6667C29.2 36.6667 36.6667 29.2 36.6667 20C36.6667 10.8 29.2 3.33334 20 3.33334ZM16.6667 27.5L26.6667 20L16.6667 12.5V27.5ZM6.66667 20C6.66667 27.35 12.65 33.3333 20 33.3333C27.35 33.3333 33.3333 27.35 33.3333 20C33.3333 12.65 27.35 6.66668 20 6.66668C12.65 6.66668 6.66667 12.65 6.66667 20Z" fill="white"/>
</svg>
